<?xml version="1.0" encoding="utf-8"?>
<!-- Generator: Adobe Illustrator 21.1.0, SVG Export Plug-In . SVG Version: 6.00 Build 0)  -->
<svg version="1.1" id="Layer_1" xmlns="http://www.w3.org/2000/svg" xmlns:xlink="http://www.w3.org/1999/xlink" x="0px" y="0px"
	 viewBox="0 0 95.5 94.7" style="enable-background:new 0 0 95.5 94.7;" xml:space="preserve">
<style type="text/css">
	.st0{fill:#FFCC00;}
</style>
<path class="st0" d="M81,32.8L81,32.8L95.5,17H57.2v-6.6l33.2-5.5l-0.8-4.8L52.3,6.2V17H38.4C37.2,7.4,29.2,0,19.6,0
	C9,0,0.5,8.7,0.5,19.4s8.5,19.4,19,19.4c4,0,7.9-1.3,11.1-3.7l21.6,23.5v22c-5.1,0.3-16,1.4-16,7c0,6.9,16.5,7.1,18.4,7.1
	c1.9,0,18.4-0.2,18.4-7.1c0-5.6-10.9-6.8-16-7v-22L81,32.8z M74.3,32.8H35.1l-10-10.9h13.4h45.9L74.3,32.8z M54.7,89.9
	c-6.9,0-11.4-1.3-13-2.2c1.6-0.9,6.2-2.2,13-2.2s11.4,1.3,13,2.2C66.1,88.6,61.6,89.9,54.7,89.9z"/>
</svg>
